# xmcd
#
# Track frame offsets:
#	150
#	23245
#	49883
#	88349
#	125534
#	141671
#	178260
#	208187
#	247830
#	287266
#	331733
#
# Disc length: 4703 seconds
#
# Revision: 2
# Processed by: cddbd v1.5.2PL0 Copyright (c) Steve Scherf et al.
# Submitted via: EasyCDDAExtractor 11.0.3.1
#
DISCID=a5125d0b
DTITLE=Ronnie Earl and the Broadcasters - Hope Radio
DYEAR=2007
DGENRE=Blues-Instrumentral-Guitar
TTITLE0=Eddie's Gospel Groove
TTITLE1=Bobby's Bop
TTITLE2=Blues For the West Side 
TTITLE3=Am With You
TTITLE4=Katrina Blues 
TTITLE5=Wolf Dance
TTITLE6=Kay My Dear
TTITLE7=Blues For The Homeless 
TTITLE8=Beautiful Child
TTITLE9=Blues For Otis Rush
TTITLE10=Ronnie Earl and the Broadcasters - New Gospel Tune
EXTD=
EXTT0=
EXTT1=
EXTT2=
EXTT3=
EXTT4=
EXTT5=
EXTT6=
EXTT7=
EXTT8=
EXTT9=
EXTT10=
PLAYORDER=
